<?xml version="1.0" encoding="utf-8"?>
<!-- Generator: Adobe Illustrator 27.9.0, SVG Export Plug-In . SVG Version: 6.00 Build 0)  -->
<svg version="1.1" id="c" xmlns="http://www.w3.org/2000/svg" xmlns:xlink="http://www.w3.org/1999/xlink" x="0px" y="0px"
	 viewBox="0 0 22 22" style="enable-background:new 0 0 22 22;" xml:space="preserve">
<style type="text/css">
	.st0{fill:#010101;}
</style>
<path class="st0" d="M11.8,17.2c-0.3,0.6-0.6,1.2-1,1.7c-0.4-0.6-0.8-1.2-1.1-1.9c-0.3-0.7-0.6-1.4-0.8-2.1h2.3l-0.6-2H8.4
	c-0.1-0.3-0.1-0.7-0.1-1s0-0.7,0-1s0-0.7,0-1s0.1-0.7,0.1-1h4.8c0.1,0.3,0.1,0.7,0.1,1c0,0.3,0,0.6,0,0.9l2,0.6c0-0.2,0-0.3,0-0.5
	c0-0.4,0-0.7,0-1s-0.1-0.7-0.1-1h3.5c0.1,0.3,0.1,0.7,0.2,1s0.1,0.7,0.1,1s0,0.7-0.1,1c0,0.2-0.1,0.3-0.1,0.5l2,0.6
	c0.1-0.7,0.2-1.4,0.2-2.1c0-1.4-0.3-2.7-0.8-4c-0.5-1.2-1.3-2.3-2.2-3.2c-0.9-0.9-2-1.7-3.2-2.2s-2.6-0.8-4-0.8S8,0.8,6.8,1.4
	S4.5,2.6,3.5,3.6s-1.7,2-2.2,3.2s-0.8,2.6-0.8,4s0.3,2.7,0.8,4C1.9,16,2.6,17.1,3.5,18s2,1.7,3.3,2.2c1.2,0.5,2.6,0.8,4,0.8
	c0.7,0,1.4-0.1,2.1-0.2C12.9,20.8,11.8,17.2,11.8,17.2z M16,4.4c0.7,0.6,1.4,1.4,1.8,2.2h-3c-0.1-0.7-0.4-1.3-0.6-1.9
	C14,4.2,13.7,3.6,13.4,3C14.4,3.3,15.2,3.8,16,4.4L16,4.4z M9.6,4.5c0.3-0.7,0.7-1.3,1.1-1.9c0.4,0.6,0.8,1.2,1.1,1.9
	c0.3,0.7,0.6,1.4,0.8,2.1H8.8C9,5.9,9.3,5.2,9.6,4.5z M2.8,12.8c-0.1-0.3-0.2-0.7-0.2-1s-0.1-0.7-0.1-1s0-0.7,0.1-1s0.1-0.7,0.2-1
	h3.5c-0.1,0.3-0.1,0.7-0.1,1c0,0.3,0,0.7,0,1s0,0.7,0,1c0,0.3,0.1,0.7,0.1,1H2.8z M5.6,17.1c-0.7-0.6-1.4-1.4-1.8-2.2h3
	c0.2,0.6,0.3,1.3,0.6,1.9c0.2,0.6,0.5,1.2,0.8,1.8C7.1,18.2,6.3,17.7,5.6,17.1L5.6,17.1z M7.3,4.8C7.1,5.4,6.9,6,6.7,6.7h-3
	c0.5-0.8,1.1-1.6,1.9-2.2S7.2,3.3,8.1,3C7.8,3.6,7.5,4.2,7.3,4.8L7.3,4.8z M19.5,21.5l-3.4-3.4l-1.4,3.4l-2.9-9.8l9.7,2.9l-3.4,1.4
	l3.4,3.4L19.5,21.5L19.5,21.5z"/>
</svg>
