<?xml version="1.0" encoding="utf-8"?>
<!-- Generator: Adobe Illustrator 27.9.0, SVG Export Plug-In . SVG Version: 6.00 Build 0)  -->
<svg version="1.1" id="c" xmlns="http://www.w3.org/2000/svg" xmlns:xlink="http://www.w3.org/1999/xlink" x="0px" y="0px"
	 viewBox="0 0 27 22" style="enable-background:new 0 0 27 22;" xml:space="preserve">
<style type="text/css">
	.st0{fill:#010101;}
</style>
<path class="st0" d="M10.9,10.1c1.5-0.7,2.3-1.8,2.3-3.5c0-3.3-2.5-4.1-5.3-4.1H0v16.6h8.1c3,0,5.8-1.5,5.8-4.8
	C13.9,12.2,12.9,10.7,10.9,10.1L10.9,10.1L10.9,10.1z M3.7,5.4h3.4c1.3,0,2.5,0.4,2.5,1.9c0,1.4-0.9,2-2.2,2H3.6
	C3.6,9.2,3.6,5.4,3.7,5.4z M7.6,16.3H3.7v-4.6h4c1.6,0,2.6,0.7,2.6,2.4S9,16.3,7.6,16.3L7.6,16.3z M24.4,5.1h-6.7V3.4h6.7V5.1
	L24.4,5.1z M27,13.3c0-3.6-2.1-6.5-5.9-6.5S15,9.6,15,13.2s2.4,6.3,6.1,6.3c2.9,0,4.7-1.3,5.6-4h-2.9c-0.3,1-1.6,1.6-2.6,1.6
	c-1.9,0-3-1.1-3-3.1H27C27,13.7,27,13.5,27,13.3L27,13.3z M18.3,11.9c0.1-1.6,1.2-2.6,2.7-2.6s2.5,1,2.6,2.6H18.3L18.3,11.9z"/>
</svg>
