<?xml version="1.0" encoding="utf-8"?>
<!-- Generator: Adobe Illustrator 27.9.0, SVG Export Plug-In . SVG Version: 6.00 Build 0)  -->
<svg version="1.1" id="c" xmlns="http://www.w3.org/2000/svg" xmlns:xlink="http://www.w3.org/1999/xlink" x="0px" y="0px"
	 viewBox="0 0 22 22" style="enable-background:new 0 0 22 22;" xml:space="preserve">
<style type="text/css">
	.st0{fill:#010101;}
</style>
<path class="st0" d="M11,5.7c-3,0-5.4,2.4-5.4,5.4S8,16.4,11,16.4s5.4-2.4,5.4-5.4S14,5.7,11,5.7z M11,14.6c-1.9,0-3.5-1.6-3.5-3.5
	S9.1,7.6,11,7.6s3.5,1.6,3.5,3.5S12.9,14.6,11,14.6L11,14.6z M17.9,5.4c0,0.7-0.6,1.3-1.3,1.3s-1.3-0.6-1.3-1.3s0.6-1.3,1.3-1.3
	C17.3,4.2,17.9,4.7,17.9,5.4z M21.4,6.7C21.4,5,21,3.5,19.7,2.3c-1.2-1.2-2.7-1.6-4.4-1.7c-1.7-0.1-6.9-0.1-8.7,0
	C5,0.7,3.5,1.1,2.3,2.3S0.6,5,0.6,6.7c-0.1,1.7-0.1,6.9,0,8.7c0.1,1.7,0.5,3.2,1.7,4.4C3.5,21,5,21.4,6.7,21.5
	c1.7,0.1,6.9,0.1,8.7,0c1.7-0.1,3.2-0.5,4.4-1.7c1.2-1.2,1.6-2.7,1.7-4.4C21.5,13.7,21.5,8.5,21.4,6.7L21.4,6.7L21.4,6.7z
	 M19.2,17.2c-0.4,0.9-1.1,1.6-2,2c-1.4,0.5-4.7,0.4-6.2,0.4s-4.8,0.1-6.2-0.4c-0.9-0.4-1.6-1.1-2-2c-0.5-1.4-0.4-4.7-0.4-6.2
	S2.3,6.2,2.8,4.9c0.4-0.9,1.1-1.6,2-2C6.2,2.3,9.5,2.4,11,2.4s4.8-0.1,6.2,0.4c0.9,0.4,1.6,1.1,2,2c0.5,1.4,0.4,4.7,0.4,6.2
	S19.7,15.9,19.2,17.2z"/>
</svg>
