<?xml version="1.0" encoding="utf-8"?>
<!-- Generator: Adobe Illustrator 27.9.0, SVG Export Plug-In . SVG Version: 6.00 Build 0)  -->
<svg version="1.1" id="c" xmlns="http://www.w3.org/2000/svg" xmlns:xlink="http://www.w3.org/1999/xlink" x="0px" y="0px"
	 viewBox="0 0 22 22" style="enable-background:new 0 0 22 22;" xml:space="preserve">
<style type="text/css">
	.st0{fill:#010101;}
</style>
<path class="st0" d="M5.2,21.5H0.9v-14h4.3V21.5z M3,5.6c-1.4,0-2.5-1.2-2.5-2.5c0-1.4,1.1-2.5,2.5-2.5s2.5,1.1,2.5,2.5
	S4.4,5.6,3,5.6z M21.5,21.5h-4.3v-6.8c0-1.6,0-3.7-2.3-3.7s-2.6,1.8-2.6,3.6v6.9H7.9v-14h4.2v1.9h0.1c0.6-1.1,2-2.3,4.1-2.3
	c4.4,0,5.2,2.9,5.2,6.7L21.5,21.5L21.5,21.5L21.5,21.5z"/>
</svg>
