<?xml version="1.0" encoding="utf-8"?>
<!-- Generator: Adobe Illustrator 27.9.0, SVG Export Plug-In . SVG Version: 6.00 Build 0)  -->
<svg version="1.1" id="c" xmlns="http://www.w3.org/2000/svg" xmlns:xlink="http://www.w3.org/1999/xlink" x="0px" y="0px"
	 viewBox="0 0 22 22" style="enable-background:new 0 0 22 22;" xml:space="preserve">
<style type="text/css">
	.st0{fill:#010101;}
</style>
<path class="st0" d="M2.6,19.4c-0.6,0-1.1-0.2-1.5-0.6s-0.6-0.9-0.6-1.5V4.7c0-0.6,0.2-1.1,0.6-1.5S2,2.6,2.6,2.6h16.8
	c0.6,0,1.1,0.2,1.5,0.6s0.6,0.9,0.6,1.5v12.6c0,0.6-0.2,1.1-0.6,1.5s-0.9,0.6-1.5,0.6L2.6,19.4L2.6,19.4z M11,12L2.6,6.8v10.5h16.8
	V6.8L11,12L11,12z M11,9.9l8.4-5.2H2.6L11,9.9z M2.6,6.8V4.7v12.6V6.8z"/>
</svg>
