<?xml version="1.0" encoding="utf-8"?>
<!-- Generator: Adobe Illustrator 27.9.0, SVG Export Plug-In . SVG Version: 6.00 Build 0)  -->
<svg version="1.1" id="b" xmlns="http://www.w3.org/2000/svg" xmlns:xlink="http://www.w3.org/1999/xlink" x="0px" y="0px"
	 viewBox="0 0 68 81" style="enable-background:new 0 0 68 81;" xml:space="preserve">
<style type="text/css">
	.st0{fill:url(#SVGID_1_);}
	.st1{fill:url(#SVGID_00000039848422552790953090000002582446064517781640_);}
	.st2{fill:url(#SVGID_00000127752267663322768790000011594751740904735639_);}
</style>
<g id="c">
	
		<linearGradient id="SVGID_1_" gradientUnits="userSpaceOnUse" x1="38.8" y1="62.415" x2="38.8" y2="21.245" gradientTransform="matrix(1 0 0 -1 0 82.33)">
		<stop  offset="6.000000e-02" style="stop-color:#000000;stop-opacity:0"/>
		<stop  offset="0.9" style="stop-color:#000000"/>
	</linearGradient>
	<rect x="37.7" y="19.9" class="st0" width="2.2" height="41.2"/>
	
		<linearGradient id="SVGID_00000069397381895419711710000016686570318591722136_" gradientUnits="userSpaceOnUse" x1="1.5" y1="39.895" x2="20.15" y2="39.895" gradientTransform="matrix(1 0 0 -1 0 82.33)">
		<stop  offset="6.000000e-02" style="stop-color:#000000;stop-opacity:0"/>
		<stop  offset="0.9" style="stop-color:#000000"/>
	</linearGradient>
	
		<rect x="1.5" y="41.3" style="fill:url(#SVGID_00000069397381895419711710000016686570318591722136_);" width="18.6" height="2.2"/>
	<path d="M61.9,25.9c-4.1-4.5-9.9-7.1-16-7.1h-8.3c-0.6,0-1.2,0-1.8,0.1c-0.3,0-0.6,0.1-0.8,0.1c-0.3,0-0.6,0.1-0.9,0.1
		c-0.3,0.1-0.7,0.1-1,0.2c-0.2,0-0.4,0.1-0.6,0.2c-0.4,0.1-0.7,0.2-1.1,0.4c-0.2,0.1-0.4,0.1-0.5,0.2c-0.4,0.1-0.7,0.3-1,0.4
		c-0.2,0.1-0.4,0.2-0.6,0.3c-0.3,0.2-0.6,0.3-0.9,0.5c-0.2,0.1-0.4,0.2-0.6,0.4c-0.3,0.2-0.5,0.4-0.8,0.5c-0.2,0.2-0.5,0.3-0.7,0.5
		c-0.2,0.2-0.5,0.4-0.7,0.5c-0.1,0.1-0.2,0.1-0.3,0.2c-0.1,0.1-0.2,0.2-0.4,0.4c-0.2,0.1-0.3,0.3-0.5,0.4c-0.1,0.1-0.2,0.2-0.3,0.3
		c-0.2,0.2-0.4,0.4-0.5,0.6c-0.3,0.3-0.5,0.6-0.7,0.9c-0.1,0.2-0.3,0.4-0.4,0.5c-0.3,0.4-0.5,0.7-0.7,1.1c-0.1,0.1-0.2,0.3-0.2,0.4
		s-0.2,0.3-0.3,0.4v-9.9c0-5.2-2.1-10-5.8-13.5C12,2,7.4,0.2,2.7,0.2H0.4v43.4c0,0.7,0,1.3,0.1,2c0,0.2,0,0.3,0.1,0.5
		c0.1,0.5,0.1,1,0.2,1.5c0,0.2,0.1,0.3,0.1,0.5c0.1,0.5,0.2,0.9,0.4,1.4c0,0.2,0.1,0.3,0.2,0.5c0.2,0.4,0.3,0.9,0.5,1.3
		c0.1,0.2,0.2,0.3,0.2,0.5c0.2,0.4,0.4,0.8,0.6,1.2c0.1,0.2,0.2,0.4,0.3,0.6c0.2,0.3,0.5,0.7,0.7,1c0.2,0.2,0.3,0.4,0.4,0.6
		c0.2,0.3,0.5,0.6,0.7,0.9c0.2,0.2,0.4,0.4,0.6,0.6c0.1,0.1,0.1,0.1,0.2,0.2c0.2,0.2,0.5,0.4,0.7,0.7c0.1,0.1,0.3,0.3,0.4,0.4
		c0,0,0.1,0.1,0.1,0.1c0.2,0.2,0.4,0.3,0.6,0.5c0.2,0.2,0.5,0.4,0.7,0.5c0.3,0.2,0.5,0.3,0.8,0.5c0.2,0.1,0.4,0.2,0.6,0.4
		c0.3,0.2,0.6,0.3,1,0.5c0.2,0.1,0.3,0.2,0.5,0.2c0.4,0.2,0.7,0.3,1.1,0.4c0.2,0.1,0.3,0.1,0.5,0.2c0.4,0.1,0.7,0.2,1.1,0.3
		c0.2,0.1,0.4,0.1,0.6,0.2c0.3,0.1,0.7,0.2,1,0.2c0.3,0,0.6,0.1,0.8,0.1c0.3,0,0.5,0.1,0.8,0.1c0.6,0,1.1,0.1,1.7,0.1h0v18.7h2.2
		c5.2,0,10-2.1,13.5-5.8c3.3-3.5,5.1-8,5.1-12.8v0h6c6,0,11.7-2.5,15.8-6.8c3.8-4,5.9-9.3,5.9-14.8S65.6,29.9,61.9,25.9L61.9,25.9z
		 M37.7,60H21.2V43.5h0c4.4,0,8.5,1.7,11.6,4.8C36,51.4,37.7,55.5,37.7,60L37.7,60L37.7,60z M17.5,59.9c-0.2,0-0.5-0.1-0.7-0.1
		c-0.2,0-0.5-0.1-0.7-0.1c-0.3-0.1-0.6-0.1-0.9-0.2c-0.2,0-0.4-0.1-0.5-0.1c-0.3-0.1-0.6-0.2-0.9-0.3c-0.1,0-0.3-0.1-0.4-0.2
		c-0.3-0.1-0.6-0.2-0.9-0.4c-0.1-0.1-0.3-0.1-0.4-0.2c-0.3-0.1-0.6-0.3-0.9-0.5c-0.2-0.1-0.3-0.2-0.5-0.3c-0.2-0.2-0.5-0.3-0.7-0.5
		c-0.2-0.2-0.4-0.3-0.6-0.5c-0.2-0.1-0.4-0.3-0.6-0.4c-0.1-0.1-0.3-0.3-0.4-0.4c-0.3-0.2-0.6-0.5-0.8-0.8c-0.2-0.2-0.3-0.3-0.5-0.5
		c-0.2-0.3-0.5-0.5-0.7-0.8c-0.1-0.2-0.3-0.3-0.4-0.5c-0.2-0.3-0.4-0.6-0.6-0.9C5,52.1,4.9,52,4.8,51.8c-0.2-0.3-0.4-0.7-0.6-1
		c-0.1-0.2-0.2-0.3-0.2-0.5c-0.2-0.4-0.3-0.8-0.5-1.2c0-0.1-0.1-0.3-0.2-0.4c-0.1-0.4-0.2-0.8-0.3-1.2C3.1,47.3,3,47.2,3,47
		c-0.1-0.4-0.2-0.9-0.2-1.3c0-0.1,0-0.3-0.1-0.4c-0.1-0.6-0.1-1.2-0.1-1.7V2.4h0c4.2,0,8.2,1.6,11.3,4.5c3.3,3.1,5.1,7.4,5.1,11.9
		V60h0C18.5,60,18,60,17.5,59.9L17.5,59.9z M37.7,62.2c0,4.2-1.6,8.2-4.5,11.3c-3.1,3.3-7.4,5.1-11.9,5.1h0V62.2L37.7,62.2
		L37.7,62.2L37.7,62.2z M60.1,53.8c-3.7,4-8.8,6.2-14.2,6.2h-6v0c0-5-1.9-9.6-5.5-13.1c-3.5-3.5-8.2-5.5-13.1-5.5h0v-3.9
		c0-0.6,0-1.2,0.1-1.7c0-0.1,0-0.2,0-0.3c0.1-0.5,0.1-1,0.2-1.4c0-0.1,0-0.2,0.1-0.2c0.1-0.5,0.2-1,0.4-1.4c0-0.1,0.1-0.2,0.1-0.2
		c0.2-0.5,0.3-0.9,0.5-1.4c0-0.1,0.1-0.2,0.1-0.3c0.2-0.4,0.4-0.8,0.6-1.2c0.1-0.1,0.1-0.2,0.2-0.4c0.2-0.3,0.4-0.7,0.7-1
		c0.1-0.2,0.2-0.3,0.3-0.5c0.2-0.3,0.4-0.5,0.7-0.8c0.1-0.2,0.3-0.3,0.5-0.5c0.2-0.2,0.5-0.5,0.7-0.7c0.2-0.2,0.4-0.3,0.5-0.5
		c0.2-0.2,0.4-0.3,0.6-0.5s0.4-0.3,0.6-0.4c0.2-0.2,0.5-0.3,0.7-0.5c0.2-0.1,0.4-0.2,0.5-0.3c0.3-0.2,0.5-0.3,0.8-0.5
		c0.2-0.1,0.3-0.2,0.5-0.2c0.3-0.1,0.6-0.3,0.9-0.4c0.2-0.1,0.3-0.1,0.5-0.2c0.3-0.1,0.6-0.2,1-0.3c0.2,0,0.4-0.1,0.5-0.1
		c0.3-0.1,0.6-0.1,0.9-0.2c0.2,0,0.5-0.1,0.8-0.1c0.2,0,0.5-0.1,0.8-0.1c0.5,0,1-0.1,1.5-0.1h8.3c5.5,0,10.7,2.3,14.4,6.4
		c3.3,3.6,5.1,8.3,5.1,13.1S63.5,50.2,60.1,53.8L60.1,53.8z"/>
	
		<linearGradient id="SVGID_00000013913755345134857960000016370755264290128552_" gradientUnits="userSpaceOnUse" x1="19.05" y1="13.045" x2="37.65" y2="13.045" gradientTransform="matrix(1 0 0 -1 0 82.33)">
		<stop  offset="0.1" style="stop-color:#000000;stop-opacity:0"/>
		<stop  offset="0.54" style="stop-color:#000000"/>
	</linearGradient>
	<path style="fill:url(#SVGID_00000013913755345134857960000016370755264290128552_);" d="M21.3,78.6h-2.2c0-5,1.9-9.6,5.4-13.2
		C28,61.9,32.7,60,37.7,60v2.2c-4.4,0-8.5,1.7-11.6,4.8C23,70.1,21.3,74.2,21.3,78.6L21.3,78.6z"/>
</g>
</svg>
